
<svg width="744px" height="722px" viewBox="0 0 744 722" version="1.1" xmlns="http://www.w3.org/2000/svg" xmlns:xlink="http://www.w3.org/1999/xlink">
    <g id="Page-1" stroke="none" stroke-width="1" fill="none" fill-rule="evenodd">
        <g id="bonny" transform="translate(1.000000, 1.000000)">
            <path d="M368.349934,19.23959 C362.13655,19.5525892 356.048752,21.0931313 350.443684,23.77084 L106.099924,140.52084 C93.2889795,146.638973 83.9839671,158.209854 80.8186736,171.95834 L20.5374236,434.20834 C17.7251626,446.415726 20.0134338,459.2323 26.8811736,469.73959 C27.7054266,471.010986 28.591903,472.241624 29.5374236,473.42709 L198.662434,683.70834 C207.530393,694.730648 220.975909,701.14861 235.193684,701.14584 L506.412434,701.08334 C520.62489,701.093698 534.069458,694.687689 542.943684,683.67709 L712.006184,473.36459 C720.878888,462.336758 724.203209,447.900692 721.037434,434.14584 L660.662434,171.89584 C657.49714,158.147354 648.192128,146.576473 635.381184,140.45834 L391.006184,23.77084 C383.955851,20.4024949 376.165443,18.8444132 368.349934,19.23959 Z" id="background" fill="#000000"></path>
            <g id="jolly-roger" transform="translate(140.000000, 197.000000)" fill="#FFFFFF" stroke="#000000">
                <path d="M167.045408,103 C170.045408,94 167.045408,78 168.045408,68 C169.045408,62 173.045408,56 176.045408,50 C178.045408,44 181.045408,36 188.045408,34 C186.045408,40 185.045408,40 183.045408,45 C183.045408,45 180.045408,56 180.045408,56 C178.045408,61 175.045408,63 174.045408,68 C172.045408,75 173.045408,92 173.045408,100 C173.045408,102 173.045408,105 171.045408,107 C168.045408,111 159.045408,108 160.045408,118 C160.045408,119 160.045408,121 161.045408,122 C165.045408,131 181.045408,134 189.045408,138 C197.045408,143 195.045408,148 203.045408,153 C211.045408,159 232.045408,159 242.045408,158 C245.045408,157 250.045408,157 253.045408,155 C261.045408,152 262.045408,144 270.045408,139 C276.045408,136 289.045408,134 295.045408,125 C296.045408,124 297.045408,122 297.045408,121 C300.045408,110 287.045408,114 284.045408,107 C282.045408,102 285.045408,86 286.045408,81 C286.045408,81 289.045408,84 289.045408,84 C289.045408,84 289.045408,93 289.045408,93 C289.045408,93 290.045408,103 290.045408,103 C301.045408,101 300.045408,88 301.045408,79 C303.045408,55 303.045408,40 286.045408,21 C276.045408,11 263.045408,3 249.045408,1 C249.045408,1 240.045408,1 240.045408,1 C240.045408,1 233.045408,2.84217094e-14 233.045408,2.84217094e-14 C233.045408,2.84217094e-14 225.045408,1 225.045408,1 C212.045408,2 203.045408,2 192.045408,8 C184.045408,12 179.045408,17 173.045408,24 C158.045408,40 155.045408,60 158.045408,81 C159.045408,89 161.045408,98 167.045408,103 Z M200.045408,73 C214.045408,72 224.045408,82 219.045408,96 C215.045408,105 206.045408,112 196.045408,114 C187.045408,115 183.045408,109 183.045408,101 C183.045408,88 185.045408,77 200.045408,73 Z M256.045408,73 C268.045408,73 274.045408,83 275.045408,94 C275.045408,97 276.045408,100 276.045408,102 C275.045408,109 268.045408,114 261.045408,115 C250.045408,115 237.045408,98 238.045408,88 C240.045408,79 248.045408,75 256.045408,73 Z M238.045408,134 C238.045408,134 227.045408,132 227.045408,132 C227.045408,132 218.045408,135 218.045408,135 C217.045408,128 220.045408,118 223.045408,111 C224.045408,109 226.045408,105 228.045408,104 C232.045408,103 233.045408,108 233.045408,110 C235.045408,118 238.045408,126 238.045408,134 Z" id="path3065" fill-rule="nonzero"></path>
                <path d="M277.16,150 C274.16,151 270.16,151 267.16,153 C257.16,160 262.16,177 253.16,188 C249.16,193 240.16,195 233.16,195 C220.16,195 204.16,194 198.16,181 C193.16,172 200.16,163 189.16,152 C187.16,151 184.16,148 182.16,148 C179.16,148 180.16,152 180.16,154 C180.16,154 181.16,174 181.16,174 C181.16,189 185.16,189 192.16,198 C196.16,204 199.16,210 206.16,213 C215.16,216 225.16,216 234.16,215 C241.16,215 245.16,216 252.16,212 C259.16,208 271.16,192 273.16,184 C273.16,184 274.16,170 274.16,170 C276.16,160 277.16,162 277.16,150 Z" id="path3067"></path>
                <path d="M460.26,46 C445.26,67 428.995,84.794 411.26,106 C411.26,106 387.26,133 387.26,133 C367.26,152 317.26,189 294.26,204 C281.26,213 267.26,220 253.26,226 C253.26,226 235,234.84 235,234.84 C238,237.84 243.58,239.48 248.63,241.84 C251.63,241.84 262.26,236 265.26,234 C265.26,234 297.26,216 297.26,216 C303.26,212 309.26,207 316.26,206 C313.26,213 306.26,217 299.26,221 C299.26,221 280.26,232 280.26,232 C280.26,232 260.31,243.37 257.58,245.26 C263.05,247.42 271.26,249.9 276.47,252 C281.47,252 288.26,247 292.26,245 C303.26,239 317.26,230 328.26,222 C328.26,222 346.26,210 346.26,210 C360.26,199 374.26,187 387.26,174 C397.26,165 407.26,156 415.26,145 C426.26,132 433.26,117 441.26,102 C450.26,88 453.26,79 458.26,64 C459.26,59 462.26,51 460.26,46 Z" id="path3069"></path>
                <path d="M1.04743157,41 C-1.95256843,52 2.04743157,65 6.04743157,75 C15.0474316,99 30.0474316,120 45.0474316,140 C54.0474316,153 69.0474316,169 80.0474316,180 C80.0474316,180 92.0474316,190 92.0474316,190 C92.0474316,190 118.047432,213 118.047432,213 C139.047432,229 178.047432,253 202.047432,264 C202.047432,264 234.047432,278 234.047432,278 C234.047432,278 247.047432,283 247.047432,283 C262.047432,289 277.047432,293 293.047432,296 C302.047432,298 312.047432,301 321.047432,301 C318.047432,290 312.047432,291 303.047432,288 C303.047432,288 270.047432,275 270.047432,275 C224.047432,256 173.047432,237 137.047432,201 C144.047432,201 149.047432,207 154.047432,211 C161.047432,216 170.047432,222 178.047432,227 C200.047432,240 250.047432,263 275.047432,272 C285.047432,276 302.047432,283 312.047432,283 C320.047432,284 331.047432,279 337.047432,275 C333.047432,271 329.047432,272 323.047432,271 C323.047432,271 292.047432,262 292.047432,262 C265.047432,255 239.047432,245 214.047432,232 C214.047432,232 200.047432,226 200.047432,226 C200.047432,226 181.047432,214 181.047432,214 C181.047432,214 158.047432,199 158.047432,199 C158.047432,199 134.047432,180 134.047432,180 C134.047432,180 93.0474316,148 93.0474316,148 C93.0474316,148 55.0474316,109 55.0474316,109 C55.0474316,109 36.0474316,87 36.0474316,87 C36.0474316,87 16.0474316,65 16.0474316,65 C16.0474316,65 1.04743157,41 1.04743157,41 Z" id="path3071"></path>
                <path d="M321.75,288.656854 C323.75,292.656854 327.75,298.656854 327.75,303.656854 C327.75,314.656854 314.75,324.656854 304.75,323.656854 C300.75,322.656854 291.75,317.656854 288.75,323.656854 C287.75,325.656854 287.75,327.656854 288.75,328.656854 C288.75,332.656854 293.75,334.656854 297.75,336.656854 C308.75,339.656854 320.75,335.656854 329.75,329.656854 C336.75,325.656854 341.75,318.656854 343.75,310.656854 C343.75,310.656854 345.75,297.656854 345.75,297.656854 C346.75,293.656854 350.75,292.656854 355.75,285.656854 C361.75,277.656854 367.75,263.656854 375.75,257.656854 C378.75,255.656854 381.75,254.656854 385.75,253.656854 C383.75,250.656854 381.75,248.656854 379.75,245.656854 C377.75,244.656854 375.75,242.656854 373.75,242.656854 C370.75,241.656854 366.75,241.656854 363.75,243.656854 C349.75,250.656854 352.75,263.656854 344.75,273.656854 C338.75,281.656854 331.75,285.656854 321.75,288.656854 Z" id="path3073"></path>
                <path d="M354,301 C361,304 367,303 374,303 C374,303 389,304 389,304 C396,304 398,300 401,294 C402,292 403,288 401,286 C399,284 395,284 392,284 C392,284 375,285 375,285 C372,285 367,285 364,286 C359,289 355,296 354,301 Z" id="path3075"></path>
                <path d="M408.054769,315 C403.054769,313 400.054769,311 397.054769,307 C396.054769,308 395.054769,308 394.054769,309 C393.054769,314 406.054769,326 408.054769,315 Z" id="path3077"></path>
                <path d="M401,281.893391 C401,281.893391 409,286.893391 409,286.893391 C407,290.893391 402,298.893391 403,303.893391 C404,313.893391 418,313.893391 424,307.893391 C431,299.893391 431,287.893391 421,281.893391 C415,278.893391 408,279.893391 401,281.893391 Z" id="path3079"></path>
                <path d="M42,309 C42,309 43,310 43,310 C51,308 56,305 57,297 C51,298 45,304 42,309 Z" id="path3081"></path>
                <path d="M49.3333333,272 C46.3333333,270 43.3333333,269 39.3333333,269 C36.3333333,269 33.3333333,269 30.3333333,270 C20.3333333,274 19.3333333,290 27.3333333,297 C31.3333333,301 41.3333333,303 45.3333333,298 C49.3333333,294 48.3333333,289 46.3333333,284 C45.3333333,281 43.3333333,277 45.3333333,275 C46.3333333,273 48.3333333,273 49.3333333,272 Z" id="path3083"></path>
                <path d="M48,276 C49,279 54,291 56,293 C59,295 62,295 65,295 C65,295 83,294 83,294 C83,294 96,294 96,294 C96,291 96,288 95,286 C92,278 81,274 73,274 C73,274 64,275 64,275 C58,275 53,274 48,276 Z" id="path3085"></path>
                <path d="M67,244.033007 C86,249.033007 86,265.033007 94,276.033007 C97,280.033007 105,286.033007 106,290.033007 C107,293.033007 106,294.033007 107,301.033007 C109,310.033007 115,319.033007 123,324.033007 C132,330.033007 140,334.033007 151,331.033007 C157,329.033007 163,325.033007 160,318.033007 C157,311.033007 146,318.033007 139,316.033007 C132,313.033007 124,303.033007 124,295.033007 C124,295.033007 128,281.033007 128,281.033007 C117,277.033007 104,268.033007 99,257.033007 C96,250.033007 96,240.033007 91,235.033007 C82,228.033007 70,234.033007 67,244.033007 Z" id="path3087"></path>
                <path d="M115,267 C118,271 120,272 124,274 C138,282 147,276 161,273 C161,273 190,264 190,264 C186.16,261.42 177.58,256.05 174,254 C174,254 155,259 155,259 C155,259 115,267 115,267 Z" id="path3089"></path>
                <path d="M129,296.84 C155,296.84 179,288.84 204,282.84 C204,282.84 215,277.634 218.676,277.634 C215.206,275.105 201.054,269.996 198.84,268 C195.84,268.89 184,272.84 180,273.84 C180,273.84 155,280.84 155,280.84 C155,280.84 143,283.84 143,283.84 C136,286.84 131,287.84 129,296.84 Z" id="path3091"></path>
                <path d="M206,181 C206,183.5 206.25,186.535 207.25,188.035 C208.25,189.535 212.005,189.674 213,189 C213.808,188.18 212.25,184.25 211.375,183.125 C210.5,182 209,181.5 206,181 Z" id="path3093"></path>
                <path d="M214,182.444444 C214,182.444444 215,187.444444 215,187.444444 C215,188.444444 216,190.444444 217,191.444444 C221,193.444444 223,183.444444 220,182.444444 C218,181.444444 216,182.444444 214,182.444444 Z" id="path3095"></path>
                <path d="M225.62683,183.077417 C222.62683,185.077417 222.53983,188.798417 223.66483,190.673417 C224.78983,192.548417 227.12683,192.577417 228.62683,192.077417 C229.62683,191.577417 231.12683,189.077417 231.25183,186.827417 C231.37683,184.577417 230.12683,182.577417 225.62683,183.077417 Z" id="path3097"></path>
                <path d="M215,170 C217.703,171.395 222.174,169.913 222.174,169.913 C222.174,169.913 222,164 222,164 C221,160 218,159 216,161 C215,163 215,168 215,170 Z" id="path3099"></path>
                <path d="M229.935594,160.136695 C228.935594,160.136695 225.802594,159.613695 224.802594,160.613695 C222.848594,162.572695 221.935594,169.136695 224.935594,171.136695 C226.807594,171.613695 229.935594,172.049695 230.935594,168.049695 C230.935594,168.049695 230.935594,165.136695 230.935594,165.136695 C230.935594,165.136695 230.894594,161.880695 229.935594,160.136695 Z" id="path3101"></path>
                <path d="M240.306584,192.895523 C241.219584,193.290523 242.306584,191.895523 243.306584,190.895523 C250.306584,183.895523 235.742584,178.285523 238.306584,188.895523 C238.306584,188.895523 239.260584,192.721523 240.306584,192.895523 Z" id="path3103"></path>
                <path d="M211.678434,159.155111 C210.678434,158.806111 208.940434,159.155111 207.940434,159.155111 C200.161434,162.678111 209.940434,176.155111 212.940434,167.155111 C212.940434,166.155111 212.940434,165.155111 212.940434,164.155111 C212.940434,164.155111 212.376434,159.504111 211.678434,159.155111 Z" id="path3105"></path>
                <path d="M234.168362,160 C234.168362,160 232.470362,170.128 233.168362,171 C234.476362,171.697 238.511362,171.523 239.994362,170.477 C239.994362,167.477 240.178362,163.974 239.575362,162.143 C238.972362,160.311 237.668362,160.5 234.168362,160 Z" id="path3107"></path>
                <path d="M243.564,159 C243.564,159 243,164.174 243,164.174 C243,167.174 243.651,173 247.651,170 C248.151,169.5 249.502,163.552 248.948,160.838 C247.918,159.384 246.036,159.238 243.564,159 Z" id="path3109"></path>
            </g>
            <path d="M368.401898,0.064590739 C361.850146,0.40777589 355.433254,2.0438709 349.526898,4.87709074 L91.558148,128.095841 C78.0345039,134.554831 68.2119522,146.76976 64.870648,161.283341 L1.24564802,438.127091 C-1.73217812,451.019751 0.680296103,464.558917 7.93314802,475.658341 C8.8065007,476.994638 9.74511824,478.287845 10.745648,479.533341 L189.276898,701.533341 C198.638414,713.167832 212.831321,719.942242 227.839398,719.939591 L514.151898,719.877091 C529.154657,719.887331 543.346616,713.124874 552.714398,701.502091 L731.183148,479.470841 C740.540505,467.835183 744.048403,452.607457 740.714398,438.095841 L676.995648,161.220841 C673.64571,146.718971 663.824342,134.517013 650.308148,128.064591 L392.339398,4.84584074 C384.890358,1.28749729 376.658983,-0.356628671 368.401898,0.064590739 Z M368.526898,19.0645907 C376.342407,18.669414 384.132816,20.2274956 391.183148,23.5958407 L635.558148,140.283341 C648.369092,146.401474 657.674105,157.972354 660.839398,171.720841 L721.214398,433.970841 C724.380173,447.725693 721.055852,462.161759 712.183148,473.189591 L543.120648,683.502091 C534.246423,694.51269 520.801855,700.918699 506.589398,700.908341 L235.370648,700.970841 C221.152874,700.973611 207.707357,694.555648 198.839398,683.533341 L29.714398,473.252091 C28.7688774,472.066625 27.8824011,470.835987 27.058148,469.564591 C20.1904083,459.057301 17.902137,446.240727 20.714398,434.033341 L80.995648,171.783341 C84.1609415,158.034854 93.4659539,146.463974 106.276898,140.345841 L350.620648,23.5958407 C356.225717,20.9181321 362.313514,19.37759 368.526898,19.0645907 Z" id="border" stroke="#979797" fill="#FFFFFF" fill-rule="nonzero"></path>
        </g>
    </g>
</svg>